<svg width="100" height="100" fill="none" xmlns="http://www.w3.org/2000/svg"><path d="M98.523 44.998h-3.722A44.927 44.927 0 0061.377 4.861 6.546 6.546 0 0055.063 0H44.937a6.545 6.545 0 00-6.315 4.867 45.075 45.075 0 00-33.426 40.13h-3.72A1.476 1.476 0 000 46.474v7.595a1.477 1.477 0 001.477 1.477h3.586v3.737a39.626 39.626 0 0035.021 39.199v.041A1.477 1.477 0 0041.561 100H58.44a1.477 1.477 0 001.477-1.477v-.041a39.626 39.626 0 0035.02-39.2v-3.736h3.587A1.477 1.477 0 00100 54.069v-7.595a1.478 1.478 0 00-1.477-1.476zm-6.68 0h-30.24V7.985a41.713 41.713 0 019.123 3.838v17.072A5.28 5.28 0 0076 34.169a5.28 5.28 0 005.274-5.274v-8.557a41.784 41.784 0 0110.568 24.66zM73.678 13.673a42.178 42.178 0 014.642 3.68v11.541A2.324 2.324 0 0176 31.216a2.325 2.325 0 01-2.32-2.32V13.673zM44.937 2.953h3.586v25.528a1.477 1.477 0 002.954 0V2.954h3.586A3.59 3.59 0 0158.65 6.54v38.457h-17.3V6.54a3.59 3.59 0 013.587-3.586zM21.679 17.385a42.214 42.214 0 014.642-3.703v15.214A2.327 2.327 0 0124 31.215a2.324 2.324 0 01-2.32-2.32V17.384zm-2.953 2.982v8.524A5.28 5.28 0 0024 34.163a5.28 5.28 0 005.274-5.274V11.833a41.556 41.556 0 019.123-3.849v37.014H8.154a41.964 41.964 0 0110.572-24.63v-.002zM8.016 59.283v-3.737h2.11v3.737a34.624 34.624 0 0029.958 34.093v2.136a36.665 36.665 0 01-32.067-36.23zm78.904-3.737v3.737a31.656 31.656 0 01-27.096 31.132c0-.008-.009-.014-.012-.023a1.466 1.466 0 00-.187-.337c-.017-.024-.036-.044-.054-.067a1.484 1.484 0 00-.254-.241l-.038-.032a1.481 1.481 0 00-.347-.174l-.085-.027a1.443 1.443 0 00-.408-.063H41.56a1.443 1.443 0 00-.491.092c-.123.042-.24.1-.347.173l-.039.033c-.093.07-.178.151-.253.242-.017.022-.037.042-.054.066-.077.103-.14.217-.186.337 0 .008-.01.014-.013.023A31.656 31.656 0 0113.08 59.283v-3.737h73.84zm-29.958 41.5H43.038v-4.64h13.924v4.64zm35.021-37.763a36.665 36.665 0 01-32.067 36.23v-2.138a34.624 34.624 0 0029.957-34.092v-3.737h2.11v3.737zm5.063-6.69H2.954V47.95h94.092v4.641z" fill="#fff"/></svg>