<svg width="96" height="100" fill="none" xmlns="http://www.w3.org/2000/svg"><path d="M53.18 11.257h-5.616c-.997 0-1.809.812-1.809 1.81v6.738a1.81 1.81 0 001.81 1.81h5.616c.997 0 1.809-.812 1.809-1.81v-6.739c0-.997-.812-1.809-1.81-1.809zm-1.048 7.5h-3.52v-4.643h3.52v4.643zm12.215-7.5h-5.616c-.998 0-1.81.812-1.81 1.81v6.738a1.81 1.81 0 001.81 1.81h5.616c.998 0 1.81-.812 1.81-1.81v-6.739c0-.997-.813-1.809-1.81-1.809zm-1.048 7.5h-3.52v-4.643h3.52v4.643zm12.214-7.5h-5.616c-.998 0-1.81.812-1.81 1.81v6.738c0 .998.812 1.81 1.81 1.81h5.616c.997 0 1.81-.812 1.81-1.81v-6.739c0-.997-.812-1.809-1.81-1.809zm-1.048 7.5h-3.52v-4.643h3.52v4.643zM53.18 27.992h-5.616c-.997 0-1.809.812-1.809 1.81v6.739c0 .997.812 1.809 1.81 1.809h5.616c.997 0 1.809-.812 1.809-1.81v-6.739c0-.997-.812-1.809-1.81-1.809zm-1.048 7.5h-3.52V30.85h3.52v4.643zm12.215-7.5h-5.616c-.998 0-1.81.812-1.81 1.81v6.739c0 .997.812 1.809 1.81 1.809h5.616c.998 0 1.81-.812 1.81-1.81v-6.739c0-.997-.813-1.809-1.81-1.809zm-1.048 7.5h-3.52V30.85h3.52v4.643zm12.214-7.5h-5.616c-.998 0-1.81.812-1.81 1.81v6.739c0 .997.812 1.809 1.81 1.809h5.616c.997 0 1.81-.812 1.81-1.81v-6.739c0-.997-.812-1.809-1.81-1.809zm-1.048 7.5h-3.52V30.85h3.52v4.643zM53.18 44.728h-5.616c-.997 0-1.809.812-1.809 1.81v6.739c0 .997.812 1.809 1.81 1.809h5.616c.997 0 1.809-.812 1.809-1.81v-6.739c0-.997-.812-1.809-1.81-1.809zm-1.048 7.5h-3.52v-4.643h3.52v4.643zm12.215-7.5h-5.616c-.998 0-1.81.812-1.81 1.81v6.739c0 .997.812 1.809 1.81 1.809h5.616c.998 0 1.81-.812 1.81-1.81v-6.739c0-.997-.813-1.809-1.81-1.809zm-1.048 7.5h-3.52v-4.643h3.52v4.643zm12.214-7.5h-5.616c-.998 0-1.81.812-1.81 1.81v6.739c0 .997.812 1.809 1.81 1.809h5.616c.997 0 1.81-.812 1.81-1.81v-6.739c0-.997-.812-1.809-1.81-1.809zm-1.048 7.5h-3.52v-4.643h3.52v4.643zm1.048 9.236h-5.616c-.998 0-1.81.811-1.81 1.809v6.739c0 .997.812 1.81 1.81 1.81h5.616c.997 0 1.81-.812 1.81-1.81v-6.74c0-.997-.812-1.808-1.81-1.808zm-1.048 7.5h-3.52V64.32h3.52v4.643z" fill="#fff"/><path d="M94.216 67.83c-1.831-2.69-5.518-3.403-8.217-1.59l-3.928 2.63V7.414h.285a1.878 1.878 0 001.876-1.876V1.876A1.878 1.878 0 0082.356 0h-9.123a1.428 1.428 0 100 2.857h8.141v1.7h-40.11v-1.7h23.023a1.428 1.428 0 100-2.857H40.282a1.878 1.878 0 00-1.876 1.876v3.663c0 1.034.841 1.876 1.876 1.876h.725v18.35h-2.933v-3.527a2.229 2.229 0 00-2.227-2.226H25.06a2.229 2.229 0 00-2.226 2.226v3.526h-2.053a2.316 2.316 0 00-2.313 2.314V60.84a28.625 28.625 0 00-1.82-.06h-2.25v-.742a5.032 5.032 0 00-5.028-5.027H5.027A5.032 5.032 0 000 60.04v20.4a1.429 1.429 0 002.857 0v-20.4c0-1.196.973-2.17 2.17-2.17H9.37c1.196 0 2.17.974 2.17 2.17v32.144c0 1.196-.974 2.17-2.17 2.17H5.027a2.172 2.172 0 01-2.17-2.17V89.38a1.428 1.428 0 10-2.857 0v2.803a5.032 5.032 0 005.027 5.026h4.344a5.033 5.033 0 005.026-5.026V92.1l19.782 7.491c.039.015.078.028.118.04a9.556 9.556 0 002.599.368c.468 0 .933-.037 1.395-.11h.003l29.2-4.209.021-.003a14.373 14.373 0 006.862-3.096l18.872-16.974a5.95 5.95 0 00.967-7.778zM43.864 7.415h35.35v63.367l-11.886 7.955-3.985-.224-.102-1.02a8.73 8.73 0 00-1.281-3.76 8.671 8.671 0 00-1.627-1.912h4.014c.998 0 1.81-.812 1.81-1.81v-6.739c0-.997-.812-1.809-1.81-1.809h-5.616c-.997 0-1.809.812-1.809 1.81v6.706a8.83 8.83 0 00-1.147-.235l-.785-.09v-6.382c0-.997-.812-1.81-1.81-1.81h-5.616c-.997 0-1.809.812-1.809 1.81v5.318l-1.89-.218V7.416zM59.78 68.963v-4.642h3.52v4.642h-3.52zm-7.647-4.642v4.642h-3.136l-.384-.044V64.32h3.52zm-26.44-41.452h9.524v2.895h-9.525V22.87zm-4.368 5.753h19.683v4.467H24.873c-.924 0-1.675.751-1.675 1.675v4.313c0 .924.751 1.675 1.675 1.675h16.134v4.02H24.873c-.924 0-1.675.751-1.675 1.675v4.313c0 .924.751 1.675 1.675 1.675h16.134v4.02H24.873c-.924 0-1.675.75-1.675 1.674v3.41a29.643 29.643 0 00-1.483-.303c-.13-.023-.26-.048-.39-.07V28.622zm19.683 7.324v1.95H26.055v-1.95h14.952zm0 11.683v1.949H26.055v-1.95h14.952zM26.055 61.26v-1.949h14.952v1.95H26.055zm14.952 2.858v3.926l-.44-.051a26.021 26.021 0 01-2.728-.54 25.657 25.657 0 01-6.69-2.742 28.997 28.997 0 00-.917-.512l-.15-.081h10.925zm50.339 9.36L72.493 90.434a11.513 11.513 0 01-5.418 2.42l-29.2 4.21-.04.006a6.407 6.407 0 01-2.705-.172l-20.733-7.852V63.64h2.251a25.816 25.816 0 013.713.271l.09.014a26.325 26.325 0 012.03.384l.238.056c.208.05.415.102.62.157l.112.03a25.872 25.872 0 015.395 2.147c.058.031.116.061.173.093.228.124.454.25.678.381l.01.006a28.562 28.562 0 0010.514 3.651l2.051.236 1.67.193 3.853.443.956.11 6.677.77a5.819 5.819 0 014.97 5.195l.05.497-26.778-2.61a1.429 1.429 0 00-.277 2.844l28.387 2.767c.06.011.12.02.182.024l5.683.319.08.002c.028 0 .056-.005.084-.007a1.03 1.03 0 00.218-.03c.032-.007.064-.012.095-.021.043-.013.084-.03.126-.046.026-.01.053-.019.079-.03.066-.031.13-.067.192-.108l12.918-8.645 6.153-4.118a3.086 3.086 0 014.263.823 3.088 3.088 0 01-.507 4.04z" fill="#fff"/></svg>