<svg width="98" height="100" fill="none" xmlns="http://www.w3.org/2000/svg"><path d="M97.351 61.362c-.002-.023-.006-.044-.01-.066l-.007-.051c-.005-.026-.012-.05-.019-.075l-.01-.04c-.007-.023-.016-.044-.024-.066-.005-.015-.01-.031-.017-.047l-.025-.054-.026-.054-.025-.042-.037-.061-.025-.035-.046-.06c-.011-.014-.024-.027-.036-.04-.012-.014-.028-.033-.043-.048a1.328 1.328 0 00-.09-.082l-.002-.001-18.625-15.204a5.504 5.504 0 003.35-3.174 1.22 1.22 0 10-2.264-.912 3.071 3.071 0 01-2.859 1.939 3.112 3.112 0 110-6.224 1.22 1.22 0 001.22-1.22v-9.322h4.925a1.22 1.22 0 001.22-1.22v-4.825h2.56a1.219 1.219 0 001.22-1.224l-.035-8.377a1.219 1.219 0 00-1.036-1.199v-.001L23.924.014v.001A1.243 1.243 0 0023.741 0h-13.61a1.215 1.215 0 00-.892.389L.327 9.951c-.21.226-.328.523-.327.832v8.376a1.22 1.22 0 001.22 1.219h7.697L8.91 91.171a7.653 7.653 0 00-6.87 7.61A1.22 1.22 0 003.26 100h27.192a1.22 1.22 0 001.22-1.22 7.66 7.66 0 00-6.711-7.59l.011-70.812h43.93v4.825a1.22 1.22 0 001.219 1.22h5.17v8.24a5.558 5.558 0 00-.95 10.519L55.53 60.539l-.002.002a.948.948 0 00-.088.08c-.017.016-.032.034-.048.052-.011.012-.023.023-.033.036a.736.736 0 00-.047.063c-.008.01-.017.021-.024.033l-.037.06-.025.042c-.01.018-.017.037-.026.055-.009.018-.018.036-.025.054-.008.018-.012.031-.017.047-.008.021-.017.043-.024.066l-.01.041c-.007.025-.014.049-.019.074l-.008.054-.01.063c-.004.04-.006.08-.006.12V81.2a1.22 1.22 0 001.22 1.22h39.837a1.22 1.22 0 001.22-1.22V61.481c0-.04-.002-.08-.007-.12zM70.33 9.563H24.97l-.006-6.924L70.33 9.563zm-47.8 0h-8.561l8.557-6 .005 6zM11.347 2.439h8.531l-8.545 5.993.014-5.993zM8.902 4.325L8.89 9.563H4.023l4.88-5.238zM29.09 97.561H4.623a5.22 5.22 0 015.068-3.992h14.331a5.22 5.22 0 015.068 3.992zm-8.11-68.232l-9.627 4.431v-8.859l9.627 4.428zm-9.626-7.114v-1.837h11.18l-.002 6.98-11.178-5.143zm11.177 9.086l-.001 9.237-10.037-4.617 10.038-4.62zM20.918 42.48l-9.564 4.4v-8.8l9.564 4.4zm1.612 1.943l-.001 8.838-9.603-4.42 9.604-4.418zM20.886 55.19l-9.534 4.388v-8.775l9.534 4.387zm1.642 1.93l-.001 9.096-9.882-4.55 9.883-4.547zm-1.581 11.054L11.35 72.59v-8.834l9.595 4.417zm1.579 1.958l-.001 9.26-10.061-4.629 10.062-4.631zm-1.638 11.191l-9.538 4.388v-8.776l9.538 4.388zm1.636 1.933l-.001 7.874H11.35v-2.732l11.174-5.142zm48.817-59.272v-3.606h2.44a1.22 1.22 0 100-2.439H2.439v-5.937h82.749l.024 5.937h-6.96a1.22 1.22 0 000 2.439h3.185v3.606H71.341zm4.879 22.814l16.496 13.466H59.723L76.22 46.798zM94.918 79.98H57.52V62.703h37.4V79.98z" fill="#fff"/></svg>